<mxfile host="app.diagrams.net" modified="2023-12-26T13:11:01.774Z" agent="Mozilla/5.0 (Windows NT 10.0; Win64; x64) AppleWebKit/537.36 (KHTML, like Gecko) Chrome/120.0.0.0 Safari/537.36" etag="txeQrXwx3S6TerRil7b3" version="21.3.8" type="device">
  <diagram name="Page-1" id="c4acf3e9-155e-7222-9cf6-157b1a14988f">
    <mxGraphModel dx="1687" dy="908" grid="1" gridSize="10" guides="1" tooltips="1" connect="1" arrows="1" fold="1" page="1" pageScale="1" pageWidth="850" pageHeight="1100" background="none" math="0" shadow="0">
      <root>
        <mxCell id="0" />
        <mxCell id="1" parent="0" />
        <mxCell id="NjO66bgJNrttw9NnB4YL-105" value="" style="rounded=0;whiteSpace=wrap;html=1;" vertex="1" parent="1">
          <mxGeometry x="20" y="1230" width="800" height="600" as="geometry" />
        </mxCell>
        <mxCell id="NjO66bgJNrttw9NnB4YL-69" value="" style="rounded=0;whiteSpace=wrap;html=1;" vertex="1" parent="1">
          <mxGeometry x="20" y="170" width="800" height="600" as="geometry" />
        </mxCell>
        <mxCell id="NjO66bgJNrttw9NnB4YL-2" value="Client" style="swimlane;fontStyle=0;childLayout=stackLayout;horizontal=1;startSize=26;fillColor=none;horizontalStack=0;resizeParent=1;resizeParentMax=0;resizeLast=0;collapsible=1;marginBottom=0;whiteSpace=wrap;html=1;" vertex="1" parent="1">
          <mxGeometry x="60" y="220" width="140" height="156" as="geometry" />
        </mxCell>
        <mxCell id="NjO66bgJNrttw9NnB4YL-3" value="+ Id: int" style="text;strokeColor=none;fillColor=none;align=left;verticalAlign=top;spacingLeft=4;spacingRight=4;overflow=hidden;rotatable=0;points=[[0,0.5],[1,0.5]];portConstraint=eastwest;whiteSpace=wrap;html=1;" vertex="1" parent="NjO66bgJNrttw9NnB4YL-2">
          <mxGeometry y="26" width="140" height="26" as="geometry" />
        </mxCell>
        <mxCell id="NjO66bgJNrttw9NnB4YL-4" value="+ Name: string" style="text;strokeColor=none;fillColor=none;align=left;verticalAlign=top;spacingLeft=4;spacingRight=4;overflow=hidden;rotatable=0;points=[[0,0.5],[1,0.5]];portConstraint=eastwest;whiteSpace=wrap;html=1;" vertex="1" parent="NjO66bgJNrttw9NnB4YL-2">
          <mxGeometry y="52" width="140" height="26" as="geometry" />
        </mxCell>
        <mxCell id="NjO66bgJNrttw9NnB4YL-5" value="+ ImageName: string" style="text;strokeColor=none;fillColor=none;align=left;verticalAlign=top;spacingLeft=4;spacingRight=4;overflow=hidden;rotatable=0;points=[[0,0.5],[1,0.5]];portConstraint=eastwest;whiteSpace=wrap;html=1;" vertex="1" parent="NjO66bgJNrttw9NnB4YL-2">
          <mxGeometry y="78" width="140" height="26" as="geometry" />
        </mxCell>
        <mxCell id="NjO66bgJNrttw9NnB4YL-7" value="+ HairArtistId: int" style="text;strokeColor=none;fillColor=none;align=left;verticalAlign=top;spacingLeft=4;spacingRight=4;overflow=hidden;rotatable=0;points=[[0,0.5],[1,0.5]];portConstraint=eastwest;whiteSpace=wrap;html=1;" vertex="1" parent="NjO66bgJNrttw9NnB4YL-2">
          <mxGeometry y="104" width="140" height="26" as="geometry" />
        </mxCell>
        <mxCell id="NjO66bgJNrttw9NnB4YL-8" value="+ HairArtist: HairArtist" style="text;strokeColor=none;fillColor=none;align=left;verticalAlign=top;spacingLeft=4;spacingRight=4;overflow=hidden;rotatable=0;points=[[0,0.5],[1,0.5]];portConstraint=eastwest;whiteSpace=wrap;html=1;" vertex="1" parent="NjO66bgJNrttw9NnB4YL-2">
          <mxGeometry y="130" width="140" height="26" as="geometry" />
        </mxCell>
        <mxCell id="NjO66bgJNrttw9NnB4YL-9" value="HairArtist" style="swimlane;fontStyle=0;childLayout=stackLayout;horizontal=1;startSize=26;fillColor=none;horizontalStack=0;resizeParent=1;resizeParentMax=0;resizeLast=0;collapsible=1;marginBottom=0;whiteSpace=wrap;html=1;" vertex="1" parent="1">
          <mxGeometry x="300" y="220" width="200" height="156" as="geometry" />
        </mxCell>
        <mxCell id="NjO66bgJNrttw9NnB4YL-10" value="+ Id: int" style="text;strokeColor=none;fillColor=none;align=left;verticalAlign=top;spacingLeft=4;spacingRight=4;overflow=hidden;rotatable=0;points=[[0,0.5],[1,0.5]];portConstraint=eastwest;whiteSpace=wrap;html=1;" vertex="1" parent="NjO66bgJNrttw9NnB4YL-9">
          <mxGeometry y="26" width="200" height="26" as="geometry" />
        </mxCell>
        <mxCell id="NjO66bgJNrttw9NnB4YL-11" value="+ Name: string" style="text;strokeColor=none;fillColor=none;align=left;verticalAlign=top;spacingLeft=4;spacingRight=4;overflow=hidden;rotatable=0;points=[[0,0.5],[1,0.5]];portConstraint=eastwest;whiteSpace=wrap;html=1;" vertex="1" parent="NjO66bgJNrttw9NnB4YL-9">
          <mxGeometry y="52" width="200" height="26" as="geometry" />
        </mxCell>
        <mxCell id="NjO66bgJNrttw9NnB4YL-12" value="+ ImageName: string" style="text;strokeColor=none;fillColor=none;align=left;verticalAlign=top;spacingLeft=4;spacingRight=4;overflow=hidden;rotatable=0;points=[[0,0.5],[1,0.5]];portConstraint=eastwest;whiteSpace=wrap;html=1;" vertex="1" parent="NjO66bgJNrttw9NnB4YL-9">
          <mxGeometry y="78" width="200" height="26" as="geometry" />
        </mxCell>
        <mxCell id="NjO66bgJNrttw9NnB4YL-13" value="+ Clients: ICollection&amp;lt;Client&amp;gt;" style="text;strokeColor=none;fillColor=none;align=left;verticalAlign=top;spacingLeft=4;spacingRight=4;overflow=hidden;rotatable=0;points=[[0,0.5],[1,0.5]];portConstraint=eastwest;whiteSpace=wrap;html=1;" vertex="1" parent="NjO66bgJNrttw9NnB4YL-9">
          <mxGeometry y="104" width="200" height="26" as="geometry" />
        </mxCell>
        <mxCell id="NjO66bgJNrttw9NnB4YL-14" value="+ Gallerys: ICollection&amp;lt;Gallery&amp;gt;" style="text;strokeColor=none;fillColor=none;align=left;verticalAlign=top;spacingLeft=4;spacingRight=4;overflow=hidden;rotatable=0;points=[[0,0.5],[1,0.5]];portConstraint=eastwest;whiteSpace=wrap;html=1;" vertex="1" parent="NjO66bgJNrttw9NnB4YL-9">
          <mxGeometry y="130" width="200" height="26" as="geometry" />
        </mxCell>
        <mxCell id="NjO66bgJNrttw9NnB4YL-15" value="Gallery" style="swimlane;fontStyle=0;childLayout=stackLayout;horizontal=1;startSize=26;fillColor=none;horizontalStack=0;resizeParent=1;resizeParentMax=0;resizeLast=0;collapsible=1;marginBottom=0;whiteSpace=wrap;html=1;" vertex="1" parent="1">
          <mxGeometry x="570" y="220" width="200" height="156" as="geometry" />
        </mxCell>
        <mxCell id="NjO66bgJNrttw9NnB4YL-16" value="+ Id: int" style="text;strokeColor=none;fillColor=none;align=left;verticalAlign=top;spacingLeft=4;spacingRight=4;overflow=hidden;rotatable=0;points=[[0,0.5],[1,0.5]];portConstraint=eastwest;whiteSpace=wrap;html=1;" vertex="1" parent="NjO66bgJNrttw9NnB4YL-15">
          <mxGeometry y="26" width="200" height="26" as="geometry" />
        </mxCell>
        <mxCell id="NjO66bgJNrttw9NnB4YL-17" value="+ Decsription: string" style="text;strokeColor=none;fillColor=none;align=left;verticalAlign=top;spacingLeft=4;spacingRight=4;overflow=hidden;rotatable=0;points=[[0,0.5],[1,0.5]];portConstraint=eastwest;whiteSpace=wrap;html=1;" vertex="1" parent="NjO66bgJNrttw9NnB4YL-15">
          <mxGeometry y="52" width="200" height="26" as="geometry" />
        </mxCell>
        <mxCell id="NjO66bgJNrttw9NnB4YL-18" value="+ ImageName: string" style="text;strokeColor=none;fillColor=none;align=left;verticalAlign=top;spacingLeft=4;spacingRight=4;overflow=hidden;rotatable=0;points=[[0,0.5],[1,0.5]];portConstraint=eastwest;whiteSpace=wrap;html=1;" vertex="1" parent="NjO66bgJNrttw9NnB4YL-15">
          <mxGeometry y="78" width="200" height="26" as="geometry" />
        </mxCell>
        <mxCell id="NjO66bgJNrttw9NnB4YL-19" value="+ HairArtistId: int" style="text;strokeColor=none;fillColor=none;align=left;verticalAlign=top;spacingLeft=4;spacingRight=4;overflow=hidden;rotatable=0;points=[[0,0.5],[1,0.5]];portConstraint=eastwest;whiteSpace=wrap;html=1;" vertex="1" parent="NjO66bgJNrttw9NnB4YL-15">
          <mxGeometry y="104" width="200" height="26" as="geometry" />
        </mxCell>
        <mxCell id="NjO66bgJNrttw9NnB4YL-20" value="+ HairArtist:&amp;nbsp;&amp;nbsp;HairArtist" style="text;strokeColor=none;fillColor=none;align=left;verticalAlign=top;spacingLeft=4;spacingRight=4;overflow=hidden;rotatable=0;points=[[0,0.5],[1,0.5]];portConstraint=eastwest;whiteSpace=wrap;html=1;" vertex="1" parent="NjO66bgJNrttw9NnB4YL-15">
          <mxGeometry y="130" width="200" height="26" as="geometry" />
        </mxCell>
        <mxCell id="NjO66bgJNrttw9NnB4YL-22" style="edgeStyle=orthogonalEdgeStyle;rounded=0;orthogonalLoop=1;jettySize=auto;html=1;exitX=1;exitY=0.5;exitDx=0;exitDy=0;entryX=0;entryY=0.5;entryDx=0;entryDy=0;" edge="1" parent="1" source="NjO66bgJNrttw9NnB4YL-14" target="NjO66bgJNrttw9NnB4YL-20">
          <mxGeometry relative="1" as="geometry" />
        </mxCell>
        <mxCell id="NjO66bgJNrttw9NnB4YL-26" style="edgeStyle=orthogonalEdgeStyle;rounded=0;orthogonalLoop=1;jettySize=auto;html=1;exitX=0;exitY=0.5;exitDx=0;exitDy=0;entryX=1.036;entryY=0.808;entryDx=0;entryDy=0;entryPerimeter=0;" edge="1" parent="1" source="NjO66bgJNrttw9NnB4YL-13" target="NjO66bgJNrttw9NnB4YL-8">
          <mxGeometry relative="1" as="geometry" />
        </mxCell>
        <mxCell id="NjO66bgJNrttw9NnB4YL-32" value="ClientConfiguration" style="swimlane;fontStyle=1;align=center;verticalAlign=top;childLayout=stackLayout;horizontal=1;startSize=26;horizontalStack=0;resizeParent=1;resizeParentMax=0;resizeLast=0;collapsible=1;marginBottom=0;whiteSpace=wrap;html=1;" vertex="1" parent="1">
          <mxGeometry x="50" y="450" width="160" height="60" as="geometry" />
        </mxCell>
        <mxCell id="NjO66bgJNrttw9NnB4YL-34" value="" style="line;strokeWidth=1;fillColor=none;align=left;verticalAlign=middle;spacingTop=-1;spacingLeft=3;spacingRight=3;rotatable=0;labelPosition=right;points=[];portConstraint=eastwest;strokeColor=inherit;" vertex="1" parent="NjO66bgJNrttw9NnB4YL-32">
          <mxGeometry y="26" width="160" height="8" as="geometry" />
        </mxCell>
        <mxCell id="NjO66bgJNrttw9NnB4YL-35" value="+ Configure(Client): builder" style="text;strokeColor=none;fillColor=none;align=left;verticalAlign=top;spacingLeft=4;spacingRight=4;overflow=hidden;rotatable=0;points=[[0,0.5],[1,0.5]];portConstraint=eastwest;whiteSpace=wrap;html=1;" vertex="1" parent="NjO66bgJNrttw9NnB4YL-32">
          <mxGeometry y="34" width="160" height="26" as="geometry" />
        </mxCell>
        <mxCell id="NjO66bgJNrttw9NnB4YL-38" value="HairArtistConfiguration" style="swimlane;fontStyle=1;align=center;verticalAlign=top;childLayout=stackLayout;horizontal=1;startSize=26;horizontalStack=0;resizeParent=1;resizeParentMax=0;resizeLast=0;collapsible=1;marginBottom=0;whiteSpace=wrap;html=1;" vertex="1" parent="1">
          <mxGeometry x="310" y="450" width="190" height="60" as="geometry" />
        </mxCell>
        <mxCell id="NjO66bgJNrttw9NnB4YL-39" value="" style="line;strokeWidth=1;fillColor=none;align=left;verticalAlign=middle;spacingTop=-1;spacingLeft=3;spacingRight=3;rotatable=0;labelPosition=right;points=[];portConstraint=eastwest;strokeColor=inherit;" vertex="1" parent="NjO66bgJNrttw9NnB4YL-38">
          <mxGeometry y="26" width="190" height="8" as="geometry" />
        </mxCell>
        <mxCell id="NjO66bgJNrttw9NnB4YL-40" value="+ Configure(HairArtist): builder" style="text;strokeColor=none;fillColor=none;align=left;verticalAlign=top;spacingLeft=4;spacingRight=4;overflow=hidden;rotatable=0;points=[[0,0.5],[1,0.5]];portConstraint=eastwest;whiteSpace=wrap;html=1;" vertex="1" parent="NjO66bgJNrttw9NnB4YL-38">
          <mxGeometry y="34" width="190" height="26" as="geometry" />
        </mxCell>
        <mxCell id="NjO66bgJNrttw9NnB4YL-41" value="GalleryConfiguration" style="swimlane;fontStyle=1;align=center;verticalAlign=top;childLayout=stackLayout;horizontal=1;startSize=26;horizontalStack=0;resizeParent=1;resizeParentMax=0;resizeLast=0;collapsible=1;marginBottom=0;whiteSpace=wrap;html=1;" vertex="1" parent="1">
          <mxGeometry x="575" y="450" width="190" height="60" as="geometry" />
        </mxCell>
        <mxCell id="NjO66bgJNrttw9NnB4YL-42" value="" style="line;strokeWidth=1;fillColor=none;align=left;verticalAlign=middle;spacingTop=-1;spacingLeft=3;spacingRight=3;rotatable=0;labelPosition=right;points=[];portConstraint=eastwest;strokeColor=inherit;" vertex="1" parent="NjO66bgJNrttw9NnB4YL-41">
          <mxGeometry y="26" width="190" height="8" as="geometry" />
        </mxCell>
        <mxCell id="NjO66bgJNrttw9NnB4YL-43" value="+ Configure(Gallery): builder" style="text;strokeColor=none;fillColor=none;align=left;verticalAlign=top;spacingLeft=4;spacingRight=4;overflow=hidden;rotatable=0;points=[[0,0.5],[1,0.5]];portConstraint=eastwest;whiteSpace=wrap;html=1;" vertex="1" parent="NjO66bgJNrttw9NnB4YL-41">
          <mxGeometry y="34" width="190" height="26" as="geometry" />
        </mxCell>
        <mxCell id="NjO66bgJNrttw9NnB4YL-48" value="Dbcontext" style="swimlane;fontStyle=1;align=center;verticalAlign=top;childLayout=stackLayout;horizontal=1;startSize=26;horizontalStack=0;resizeParent=1;resizeParentMax=0;resizeLast=0;collapsible=1;marginBottom=0;whiteSpace=wrap;html=1;" vertex="1" parent="1">
          <mxGeometry x="330" y="580" width="160" height="138" as="geometry" />
        </mxCell>
        <mxCell id="NjO66bgJNrttw9NnB4YL-49" value="+ Clients: Client" style="text;strokeColor=none;fillColor=none;align=left;verticalAlign=top;spacingLeft=4;spacingRight=4;overflow=hidden;rotatable=0;points=[[0,0.5],[1,0.5]];portConstraint=eastwest;whiteSpace=wrap;html=1;" vertex="1" parent="NjO66bgJNrttw9NnB4YL-48">
          <mxGeometry y="26" width="160" height="26" as="geometry" />
        </mxCell>
        <mxCell id="NjO66bgJNrttw9NnB4YL-52" value="+ Galleries: Gallery" style="text;strokeColor=none;fillColor=none;align=left;verticalAlign=top;spacingLeft=4;spacingRight=4;overflow=hidden;rotatable=0;points=[[0,0.5],[1,0.5]];portConstraint=eastwest;whiteSpace=wrap;html=1;" vertex="1" parent="NjO66bgJNrttw9NnB4YL-48">
          <mxGeometry y="52" width="160" height="26" as="geometry" />
        </mxCell>
        <mxCell id="NjO66bgJNrttw9NnB4YL-53" value="+ HairArtists: HairArtist" style="text;strokeColor=none;fillColor=none;align=left;verticalAlign=top;spacingLeft=4;spacingRight=4;overflow=hidden;rotatable=0;points=[[0,0.5],[1,0.5]];portConstraint=eastwest;whiteSpace=wrap;html=1;" vertex="1" parent="NjO66bgJNrttw9NnB4YL-48">
          <mxGeometry y="78" width="160" height="26" as="geometry" />
        </mxCell>
        <mxCell id="NjO66bgJNrttw9NnB4YL-50" value="" style="line;strokeWidth=1;fillColor=none;align=left;verticalAlign=middle;spacingTop=-1;spacingLeft=3;spacingRight=3;rotatable=0;labelPosition=right;points=[];portConstraint=eastwest;strokeColor=inherit;" vertex="1" parent="NjO66bgJNrttw9NnB4YL-48">
          <mxGeometry y="104" width="160" height="8" as="geometry" />
        </mxCell>
        <mxCell id="NjO66bgJNrttw9NnB4YL-51" value="+ OnModelCreating():" style="text;strokeColor=none;fillColor=none;align=left;verticalAlign=top;spacingLeft=4;spacingRight=4;overflow=hidden;rotatable=0;points=[[0,0.5],[1,0.5]];portConstraint=eastwest;whiteSpace=wrap;html=1;" vertex="1" parent="NjO66bgJNrttw9NnB4YL-48">
          <mxGeometry y="112" width="160" height="26" as="geometry" />
        </mxCell>
        <mxCell id="NjO66bgJNrttw9NnB4YL-65" value="" style="endArrow=diamondThin;endFill=0;endSize=24;html=1;rounded=0;entryX=0.532;entryY=1.192;entryDx=0;entryDy=0;entryPerimeter=0;exitX=0.581;exitY=0.007;exitDx=0;exitDy=0;exitPerimeter=0;" edge="1" parent="1" source="NjO66bgJNrttw9NnB4YL-48" target="NjO66bgJNrttw9NnB4YL-43">
          <mxGeometry width="160" relative="1" as="geometry">
            <mxPoint x="340" y="530" as="sourcePoint" />
            <mxPoint x="500" y="530" as="targetPoint" />
            <Array as="points">
              <mxPoint x="676" y="580" />
            </Array>
          </mxGeometry>
        </mxCell>
        <mxCell id="NjO66bgJNrttw9NnB4YL-67" value="" style="endArrow=diamondThin;endFill=0;endSize=24;html=1;rounded=0;entryX=0.579;entryY=1;entryDx=0;entryDy=0;entryPerimeter=0;exitX=0.569;exitY=-0.007;exitDx=0;exitDy=0;exitPerimeter=0;" edge="1" parent="1" source="NjO66bgJNrttw9NnB4YL-48" target="NjO66bgJNrttw9NnB4YL-40">
          <mxGeometry width="160" relative="1" as="geometry">
            <mxPoint x="340" y="530" as="sourcePoint" />
            <mxPoint x="500" y="530" as="targetPoint" />
          </mxGeometry>
        </mxCell>
        <mxCell id="NjO66bgJNrttw9NnB4YL-68" value="" style="endArrow=diamondThin;endFill=0;endSize=24;html=1;rounded=0;entryX=0.463;entryY=1.115;entryDx=0;entryDy=0;entryPerimeter=0;exitX=0.563;exitY=0.014;exitDx=0;exitDy=0;exitPerimeter=0;" edge="1" parent="1" source="NjO66bgJNrttw9NnB4YL-48" target="NjO66bgJNrttw9NnB4YL-35">
          <mxGeometry width="160" relative="1" as="geometry">
            <mxPoint x="340" y="530" as="sourcePoint" />
            <mxPoint x="500" y="530" as="targetPoint" />
            <Array as="points">
              <mxPoint x="124" y="582" />
            </Array>
          </mxGeometry>
        </mxCell>
        <mxCell id="NjO66bgJNrttw9NnB4YL-70" value="Data Access Layer" style="rounded=0;whiteSpace=wrap;html=1;fontSize=15;fontStyle=1" vertex="1" parent="1">
          <mxGeometry x="30" y="718" width="150" height="40" as="geometry" />
        </mxCell>
        <mxCell id="NjO66bgJNrttw9NnB4YL-71" value="GenericRepository" style="swimlane;fontStyle=1;align=center;verticalAlign=top;childLayout=stackLayout;horizontal=1;startSize=26;horizontalStack=0;resizeParent=1;resizeParentMax=0;resizeLast=0;collapsible=1;marginBottom=0;whiteSpace=wrap;html=1;" vertex="1" parent="1">
          <mxGeometry x="354" y="1250" width="145" height="164" as="geometry" />
        </mxCell>
        <mxCell id="NjO66bgJNrttw9NnB4YL-73" value="" style="line;strokeWidth=1;fillColor=none;align=left;verticalAlign=middle;spacingTop=-1;spacingLeft=3;spacingRight=3;rotatable=0;labelPosition=right;points=[];portConstraint=eastwest;strokeColor=inherit;" vertex="1" parent="NjO66bgJNrttw9NnB4YL-71">
          <mxGeometry y="26" width="145" height="8" as="geometry" />
        </mxCell>
        <mxCell id="NjO66bgJNrttw9NnB4YL-74" value="+ Add()" style="text;strokeColor=none;fillColor=none;align=left;verticalAlign=top;spacingLeft=4;spacingRight=4;overflow=hidden;rotatable=0;points=[[0,0.5],[1,0.5]];portConstraint=eastwest;whiteSpace=wrap;html=1;" vertex="1" parent="NjO66bgJNrttw9NnB4YL-71">
          <mxGeometry y="34" width="145" height="26" as="geometry" />
        </mxCell>
        <mxCell id="NjO66bgJNrttw9NnB4YL-75" value="+ Delete()" style="text;strokeColor=none;fillColor=none;align=left;verticalAlign=top;spacingLeft=4;spacingRight=4;overflow=hidden;rotatable=0;points=[[0,0.5],[1,0.5]];portConstraint=eastwest;whiteSpace=wrap;html=1;" vertex="1" parent="NjO66bgJNrttw9NnB4YL-71">
          <mxGeometry y="60" width="145" height="26" as="geometry" />
        </mxCell>
        <mxCell id="NjO66bgJNrttw9NnB4YL-76" value="+ Get()" style="text;strokeColor=none;fillColor=none;align=left;verticalAlign=top;spacingLeft=4;spacingRight=4;overflow=hidden;rotatable=0;points=[[0,0.5],[1,0.5]];portConstraint=eastwest;whiteSpace=wrap;html=1;" vertex="1" parent="NjO66bgJNrttw9NnB4YL-71">
          <mxGeometry y="86" width="145" height="26" as="geometry" />
        </mxCell>
        <mxCell id="NjO66bgJNrttw9NnB4YL-77" value="+ GetAll()" style="text;strokeColor=none;fillColor=none;align=left;verticalAlign=top;spacingLeft=4;spacingRight=4;overflow=hidden;rotatable=0;points=[[0,0.5],[1,0.5]];portConstraint=eastwest;whiteSpace=wrap;html=1;" vertex="1" parent="NjO66bgJNrttw9NnB4YL-71">
          <mxGeometry y="112" width="145" height="26" as="geometry" />
        </mxCell>
        <mxCell id="NjO66bgJNrttw9NnB4YL-78" value="+ Update()" style="text;strokeColor=none;fillColor=none;align=left;verticalAlign=top;spacingLeft=4;spacingRight=4;overflow=hidden;rotatable=0;points=[[0,0.5],[1,0.5]];portConstraint=eastwest;whiteSpace=wrap;html=1;" vertex="1" parent="NjO66bgJNrttw9NnB4YL-71">
          <mxGeometry y="138" width="145" height="26" as="geometry" />
        </mxCell>
        <mxCell id="NjO66bgJNrttw9NnB4YL-79" value="ClientGenericRepository" style="swimlane;fontStyle=1;align=center;verticalAlign=top;childLayout=stackLayout;horizontal=1;startSize=26;horizontalStack=0;resizeParent=1;resizeParentMax=0;resizeLast=0;collapsible=1;marginBottom=0;whiteSpace=wrap;html=1;" vertex="1" parent="1">
          <mxGeometry x="126" y="1480" width="160" height="34" as="geometry" />
        </mxCell>
        <mxCell id="NjO66bgJNrttw9NnB4YL-81" value="" style="line;strokeWidth=1;fillColor=none;align=left;verticalAlign=middle;spacingTop=-1;spacingLeft=3;spacingRight=3;rotatable=0;labelPosition=right;points=[];portConstraint=eastwest;strokeColor=inherit;" vertex="1" parent="NjO66bgJNrttw9NnB4YL-79">
          <mxGeometry y="26" width="160" height="8" as="geometry" />
        </mxCell>
        <mxCell id="NjO66bgJNrttw9NnB4YL-83" value="GalleryGenericRepository" style="swimlane;fontStyle=1;align=center;verticalAlign=top;childLayout=stackLayout;horizontal=1;startSize=26;horizontalStack=0;resizeParent=1;resizeParentMax=0;resizeLast=0;collapsible=1;marginBottom=0;whiteSpace=wrap;html=1;" vertex="1" parent="1">
          <mxGeometry x="346.5" y="1480" width="160" height="34" as="geometry" />
        </mxCell>
        <mxCell id="NjO66bgJNrttw9NnB4YL-84" value="" style="line;strokeWidth=1;fillColor=none;align=left;verticalAlign=middle;spacingTop=-1;spacingLeft=3;spacingRight=3;rotatable=0;labelPosition=right;points=[];portConstraint=eastwest;strokeColor=inherit;" vertex="1" parent="NjO66bgJNrttw9NnB4YL-83">
          <mxGeometry y="26" width="160" height="8" as="geometry" />
        </mxCell>
        <mxCell id="NjO66bgJNrttw9NnB4YL-85" value="HairArtistGenericRepository" style="swimlane;fontStyle=1;align=center;verticalAlign=top;childLayout=stackLayout;horizontal=1;startSize=26;horizontalStack=0;resizeParent=1;resizeParentMax=0;resizeLast=0;collapsible=1;marginBottom=0;whiteSpace=wrap;html=1;" vertex="1" parent="1">
          <mxGeometry x="536" y="1480" width="180" height="34" as="geometry" />
        </mxCell>
        <mxCell id="NjO66bgJNrttw9NnB4YL-86" value="" style="line;strokeWidth=1;fillColor=none;align=left;verticalAlign=middle;spacingTop=-1;spacingLeft=3;spacingRight=3;rotatable=0;labelPosition=right;points=[];portConstraint=eastwest;strokeColor=inherit;" vertex="1" parent="NjO66bgJNrttw9NnB4YL-85">
          <mxGeometry y="26" width="180" height="8" as="geometry" />
        </mxCell>
        <mxCell id="NjO66bgJNrttw9NnB4YL-87" value="Extends" style="endArrow=block;endSize=16;endFill=0;html=1;rounded=0;entryX=0.443;entryY=1.074;entryDx=0;entryDy=0;entryPerimeter=0;exitX=0.5;exitY=0;exitDx=0;exitDy=0;" edge="1" parent="1" source="NjO66bgJNrttw9NnB4YL-79" target="NjO66bgJNrttw9NnB4YL-78">
          <mxGeometry width="160" relative="1" as="geometry">
            <mxPoint x="271" y="1460" as="sourcePoint" />
            <mxPoint x="431" y="1460" as="targetPoint" />
          </mxGeometry>
        </mxCell>
        <mxCell id="NjO66bgJNrttw9NnB4YL-88" value="Extends" style="endArrow=block;endSize=16;endFill=0;html=1;rounded=0;entryX=0.471;entryY=0.968;entryDx=0;entryDy=0;entryPerimeter=0;exitX=0.5;exitY=0;exitDx=0;exitDy=0;" edge="1" parent="1" source="NjO66bgJNrttw9NnB4YL-83" target="NjO66bgJNrttw9NnB4YL-78">
          <mxGeometry width="160" relative="1" as="geometry">
            <mxPoint x="271" y="1460" as="sourcePoint" />
            <mxPoint x="431" y="1460" as="targetPoint" />
          </mxGeometry>
        </mxCell>
        <mxCell id="NjO66bgJNrttw9NnB4YL-89" value="Extends" style="endArrow=block;endSize=16;endFill=0;html=1;rounded=0;exitX=0.5;exitY=0;exitDx=0;exitDy=0;entryX=0.538;entryY=1.021;entryDx=0;entryDy=0;entryPerimeter=0;" edge="1" parent="1" source="NjO66bgJNrttw9NnB4YL-85" target="NjO66bgJNrttw9NnB4YL-78">
          <mxGeometry width="160" relative="1" as="geometry">
            <mxPoint x="271" y="1460" as="sourcePoint" />
            <mxPoint x="431" y="1460" as="targetPoint" />
          </mxGeometry>
        </mxCell>
        <mxCell id="NjO66bgJNrttw9NnB4YL-91" value="UniteOfWork" style="swimlane;fontStyle=1;align=center;verticalAlign=top;childLayout=stackLayout;horizontal=1;startSize=26;horizontalStack=0;resizeParent=1;resizeParentMax=0;resizeLast=0;collapsible=1;marginBottom=0;whiteSpace=wrap;html=1;" vertex="1" parent="1">
          <mxGeometry x="354" y="1610" width="160" height="164" as="geometry" />
        </mxCell>
        <mxCell id="NjO66bgJNrttw9NnB4YL-92" value="+ Client: IClient" style="text;strokeColor=none;fillColor=none;align=left;verticalAlign=top;spacingLeft=4;spacingRight=4;overflow=hidden;rotatable=0;points=[[0,0.5],[1,0.5]];portConstraint=eastwest;whiteSpace=wrap;html=1;" vertex="1" parent="NjO66bgJNrttw9NnB4YL-91">
          <mxGeometry y="26" width="160" height="26" as="geometry" />
        </mxCell>
        <mxCell id="NjO66bgJNrttw9NnB4YL-95" value="+ Gallery: IGallery" style="text;strokeColor=none;fillColor=none;align=left;verticalAlign=top;spacingLeft=4;spacingRight=4;overflow=hidden;rotatable=0;points=[[0,0.5],[1,0.5]];portConstraint=eastwest;whiteSpace=wrap;html=1;" vertex="1" parent="NjO66bgJNrttw9NnB4YL-91">
          <mxGeometry y="52" width="160" height="26" as="geometry" />
        </mxCell>
        <mxCell id="NjO66bgJNrttw9NnB4YL-96" value="+ HairArtist: IHairArtist" style="text;strokeColor=none;fillColor=none;align=left;verticalAlign=top;spacingLeft=4;spacingRight=4;overflow=hidden;rotatable=0;points=[[0,0.5],[1,0.5]];portConstraint=eastwest;whiteSpace=wrap;html=1;" vertex="1" parent="NjO66bgJNrttw9NnB4YL-91">
          <mxGeometry y="78" width="160" height="26" as="geometry" />
        </mxCell>
        <mxCell id="NjO66bgJNrttw9NnB4YL-93" value="" style="line;strokeWidth=1;fillColor=none;align=left;verticalAlign=middle;spacingTop=-1;spacingLeft=3;spacingRight=3;rotatable=0;labelPosition=right;points=[];portConstraint=eastwest;strokeColor=inherit;" vertex="1" parent="NjO66bgJNrttw9NnB4YL-91">
          <mxGeometry y="104" width="160" height="8" as="geometry" />
        </mxCell>
        <mxCell id="NjO66bgJNrttw9NnB4YL-94" value="+ Dispose()" style="text;strokeColor=none;fillColor=none;align=left;verticalAlign=top;spacingLeft=4;spacingRight=4;overflow=hidden;rotatable=0;points=[[0,0.5],[1,0.5]];portConstraint=eastwest;whiteSpace=wrap;html=1;" vertex="1" parent="NjO66bgJNrttw9NnB4YL-91">
          <mxGeometry y="112" width="160" height="26" as="geometry" />
        </mxCell>
        <mxCell id="NjO66bgJNrttw9NnB4YL-97" value="+ Complete()" style="text;strokeColor=none;fillColor=none;align=left;verticalAlign=top;spacingLeft=4;spacingRight=4;overflow=hidden;rotatable=0;points=[[0,0.5],[1,0.5]];portConstraint=eastwest;whiteSpace=wrap;html=1;" vertex="1" parent="NjO66bgJNrttw9NnB4YL-91">
          <mxGeometry y="138" width="160" height="26" as="geometry" />
        </mxCell>
        <mxCell id="NjO66bgJNrttw9NnB4YL-100" value="" style="endArrow=none;html=1;rounded=0;" edge="1" parent="1">
          <mxGeometry width="50" height="50" relative="1" as="geometry">
            <mxPoint x="156" y="1570" as="sourcePoint" />
            <mxPoint x="666" y="1570" as="targetPoint" />
          </mxGeometry>
        </mxCell>
        <mxCell id="NjO66bgJNrttw9NnB4YL-101" value="return" style="html=1;verticalAlign=bottom;endArrow=open;dashed=1;endSize=8;edgeStyle=elbowEdgeStyle;elbow=vertical;curved=0;rounded=0;entryX=0.421;entryY=0.897;entryDx=0;entryDy=0;entryPerimeter=0;" edge="1" parent="1" target="NjO66bgJNrttw9NnB4YL-81">
          <mxGeometry relative="1" as="geometry">
            <mxPoint x="193" y="1570" as="sourcePoint" />
            <mxPoint x="211" y="1514" as="targetPoint" />
          </mxGeometry>
        </mxCell>
        <mxCell id="NjO66bgJNrttw9NnB4YL-102" value="return" style="html=1;verticalAlign=bottom;endArrow=open;dashed=1;endSize=8;edgeStyle=elbowEdgeStyle;elbow=vertical;curved=0;rounded=0;entryX=0.421;entryY=0.897;entryDx=0;entryDy=0;entryPerimeter=0;" edge="1" parent="1">
          <mxGeometry relative="1" as="geometry">
            <mxPoint x="431" y="1571" as="sourcePoint" />
            <mxPoint x="431" y="1514" as="targetPoint" />
          </mxGeometry>
        </mxCell>
        <mxCell id="NjO66bgJNrttw9NnB4YL-103" value="return" style="html=1;verticalAlign=bottom;endArrow=open;dashed=1;endSize=8;edgeStyle=elbowEdgeStyle;elbow=vertical;curved=0;rounded=0;entryX=0.421;entryY=0.897;entryDx=0;entryDy=0;entryPerimeter=0;" edge="1" parent="1">
          <mxGeometry relative="1" as="geometry">
            <mxPoint x="631" y="1571" as="sourcePoint" />
            <mxPoint x="631" y="1514" as="targetPoint" />
          </mxGeometry>
        </mxCell>
        <mxCell id="NjO66bgJNrttw9NnB4YL-104" value="return" style="html=1;verticalAlign=bottom;endArrow=open;dashed=1;endSize=8;edgeStyle=elbowEdgeStyle;elbow=vertical;curved=0;rounded=0;" edge="1" parent="1">
          <mxGeometry relative="1" as="geometry">
            <mxPoint x="431" y="1617" as="sourcePoint" />
            <mxPoint x="431" y="1570" as="targetPoint" />
          </mxGeometry>
        </mxCell>
        <mxCell id="NjO66bgJNrttw9NnB4YL-106" value="Business Logic Layer" style="rounded=0;whiteSpace=wrap;html=1;fontSize=15;fontStyle=1" vertex="1" parent="1">
          <mxGeometry x="41" y="1774" width="180" height="40" as="geometry" />
        </mxCell>
      </root>
    </mxGraphModel>
  </diagram>
</mxfile>
